<svg width="68" height="77" viewBox="0 0 68 77" fill="none" xmlns="http://www.w3.org/2000/svg">
<rect x="0.5" y="0.5" width="65.7333" height="76" rx="4.5" fill="white" stroke="#94A2AE" stroke-miterlimit="1.60709" stroke-linejoin="bevel" stroke-dasharray="6 6"/>
<path d="M26.3619 35.65C28.3819 35.65 30.0819 36.26 31.4619 37.48C32.8419 38.68 33.5319 40.36 33.5319 42.52C33.5319 44.68 32.8019 46.37 31.3419 47.59C29.9019 48.81 28.1319 49.42 26.0319 49.42C24.3319 49.42 22.8319 49.04 21.5319 48.28C20.2319 47.52 19.2919 46.4 18.7119 44.92L22.2519 42.85C22.7719 44.53 24.0319 45.37 26.0319 45.37C27.0919 45.37 27.9119 45.12 28.4919 44.62C29.0919 44.1 29.3919 43.4 29.3919 42.52C29.3919 41.66 29.1019 40.97 28.5219 40.45C27.9419 39.93 27.1519 39.67 26.1519 39.67H19.7919L20.6319 28H32.5419V31.87H24.4719L24.2019 35.65H26.3619ZM49.4875 36.67V40.3H44.5375V45.25H40.9075V40.3H35.9875V36.67H40.9075V31.75H44.5375V36.67H49.4875Z" fill="#314F6F"/>
</svg>
